<svg width="195" height="55" viewBox="0 0 195 55" fill="none" xmlns="http://www.w3.org/2000/svg">
<path d="M119.015 43.3443C125.438 45.1059 131.236 44.905 136.606 42C138.04 44.6423 139.474 47.3156 141 50.1433C138.879 51.6113 136.209 52.4766 133.402 52.9865C133.128 53.0329 132.761 52.9556 132.517 52.8165C128.307 50.4833 123.974 48.3354 120.465 44.9205C120.068 44.5342 119.702 44.1015 119 43.3443H119.015Z" fill="#141414"/>
<path d="M36.666 42C38.1404 44.7751 39.5255 47.3816 41 50.1874C38.8851 51.6133 36.2638 52.5333 33.4638 52.9932C33.2404 53.0239 32.9574 52.9472 32.7489 52.8246C28.6383 50.5094 24.4085 48.3782 20.9681 45.0051C20.566 44.6218 20.2234 44.1925 20 43.9472C22.7702 44.1005 25.6298 44.4225 28.4894 44.3918C31.4383 44.3458 34.3128 43.7019 36.666 42.0153V42Z" fill="#141414"/>
<path d="M65.4018 43.6294C72.813 45.0483 79.3759 43.7091 83.6619 36.5827C87.6353 29.9984 87.427 23.0314 83.4535 16.5905C79.1229 9.54381 72.679 7.94954 65 9.78296C66.4733 8.37999 67.8127 6.78572 69.4497 5.63784C71.7861 3.9798 74.3012 2.56089 76.8162 1.20576C77.4115 0.886906 78.4234 0.966618 79.0782 1.25359C87.9776 5.11173 93.0523 12.3019 94.5851 22.2024C95.9245 30.8912 94.0494 38.8147 88.5431 45.5744C85.7453 49.0181 82.2034 51.3617 78.1704 52.8443C77.6496 53.0356 76.9353 53.0675 76.459 52.8443C72.2326 50.7718 68.5419 47.934 65.5804 44.0758C65.4911 43.9642 65.4613 43.8048 65.4018 43.6454V43.6294Z" fill="#141414"/>
<path d="M165.312 43.5792C172.603 44.9834 178.944 43.8026 183.295 37.1648C187.513 30.7343 187.557 23.7774 183.845 17.1555C179.598 9.59215 173.004 7.8529 165.223 10.0389C165.149 9.91127 165.074 9.78361 165 9.65596C166.752 8.07628 168.401 6.35299 170.287 4.98074C172.232 3.56063 174.341 2.37986 176.479 1.31079C177.237 0.927832 178.38 0.895915 179.152 1.231C187.973 5.07649 193.007 12.2249 194.567 22.086C195.948 30.7822 194.047 38.6966 188.597 45.478C185.79 48.9884 182.211 51.35 178.128 52.8499C177.652 53.0254 176.999 53.0733 176.553 52.8499C172.202 50.7117 168.401 47.7917 165.282 43.5633L165.312 43.5792Z" fill="#141414"/>
<path d="M29.7427 54.9029C19.1949 55.6519 10.342 52.1141 4.53089 42.632C-1.59804 32.6399 -1.44671 22.122 4.60655 12.1778C10.4328 2.60005 19.2555 -1.01748 30 0.241488C17.8783 5.54827 10.9473 14.7913 11.3711 28.6877C11.7645 41.4686 18.7712 49.7874 29.7276 54.9189L29.7427 54.9029Z" fill="#141414"/>
<path d="M129.788 54.9023C119.493 55.6355 110.833 52.2883 104.944 43.2828C98.6008 33.56 98.4191 23.1518 104.066 13.0943C109.774 2.90922 118.767 -1.04366 130 0.231464C118.312 5.30007 111.409 14.1462 111.348 27.4872C111.303 40.8441 118.388 49.5627 129.788 54.9182V54.9023Z" fill="#141414"/>
<path d="M173.985 0.0175172C162.682 5.42687 156.833 14.3743 156.636 26.6397C156.423 39.2038 162.15 48.4343 173.453 53.7808C166.039 54.9444 157.107 51.4221 152.033 44.4874C145.105 35.0525 144.118 24.7213 149.207 14.2013C154.129 4.01164 162.697 -0.312705 174 0.0175172H173.985Z" fill="#141414"/>
<path d="M73.8174 53.9632C63.9093 54.4036 56.0407 50.9118 50.7898 42.5914C44.6106 32.8083 44.4127 22.4904 50.181 12.4556C55.4014 3.36451 63.6201 -0.378877 74 0.0300647C50.9268 9.71883 51.0181 44.8406 73.8174 53.9789V53.9632Z" fill="#141414"/>
<path d="M136.564 13C131.66 9.90732 126.129 9.46981 120.365 10.8125C120.248 10.6616 120.131 10.4957 120 10.3448C120.671 9.80172 121.284 9.19827 121.999 8.74568C125.531 6.54309 129.092 4.37067 132.667 2.22843C133.017 2.01722 133.557 1.94179 133.937 2.04739C136.345 2.75644 138.723 3.54093 141 4.26507C139.453 7.31249 138.023 10.1034 136.549 13H136.564Z" fill="#141414"/>
<path d="M41 4.2639C39.4095 7.36234 37.9958 10.1283 36.5231 13C31.575 9.90156 25.9642 9.44813 20 10.5212C20.6774 9.87133 21.2665 9.07027 22.0323 8.58661C25.5077 6.41014 29.0274 4.30924 32.5617 2.23857C32.9446 2.01185 33.5631 1.93629 33.9902 2.05721C36.3759 2.75247 38.7321 3.53841 40.9853 4.2639H41Z" fill="#141414"/>
</svg>
