<svg width="138" height="125" viewBox="0 0 138 125" fill="none" xmlns="http://www.w3.org/2000/svg">
<g clip-path="url(#clip0_800_286)">
<path d="M125.683 36.3324L120.631 34.3697L120.287 34.2693C120.287 34.2693 114.074 41.9101 114.238 53.7227C114.238 53.7227 126.146 53.9052 129.465 48.9666C132.784 44.0279 132.24 42.3939 128.658 38.3864C128.658 38.3864 124.894 44.8586 121.139 46.3923C121.139 46.3923 125.075 40.349 125.511 38.4776C125.946 36.6062 125.683 36.3324 125.683 36.3324Z" fill="white" stroke="white" stroke-miterlimit="10"/>
<path d="M90.7288 12.7346C91.2548 11.064 91.7718 9.38432 92.2978 7.68637C92.2797 7.66812 92.3885 7.71376 92.452 7.78679C94.8645 11.0458 96.8325 14.5877 97.939 18.4583C100.215 26.4277 99.7619 34.2784 96.2521 41.8827C91.8353 51.4314 84.4437 57.292 74.159 59.5468C65.2347 61.5095 56.6641 60.6697 48.5742 56.2605C45.6085 54.6447 42.9965 52.5633 40.5569 50.2355C38.5616 48.3367 37.9902 45.9906 38.1898 43.3615C38.5707 38.286 40.6929 33.8311 43.323 29.6228C50.0163 18.9239 58.8045 10.352 69.8873 4.20832C72.8802 2.54689 76.0727 1.28712 79.4646 0.730265C82.0675 0.301213 84.6886 0.200797 87.0648 1.70704C89.7221 3.39586 90.5837 6.02494 90.7197 8.95527C90.7741 10.1694 90.5837 11.3926 90.5021 12.6068C90.5746 12.6433 90.6472 12.6798 90.7197 12.7163L90.7288 12.7346ZM46.0167 51.0571H46.0711C46.0711 51.55 46.0711 52.043 46.0711 52.5268C46.0711 54.097 46.9689 55.0829 48.3656 55.0281C49.6898 54.9733 50.506 53.9326 50.4244 52.4081C50.243 49.2039 51.3948 47.223 54.2698 45.8172C57.3988 44.2835 60.3826 42.5126 63.1488 40.3856C70.6673 34.6162 77.161 27.9157 82.0131 19.7455C83.6909 16.9155 85.1783 13.9852 85.7134 10.6897C85.8404 9.90466 85.9855 9.10133 85.9311 8.31626C85.7134 4.92036 83.7998 3.22241 80.3715 3.34109C76.4898 3.47802 73.107 5.11207 69.8238 6.95607C65.4615 9.41171 61.5253 12.479 57.8794 15.8931C51.939 21.4617 46.7331 27.6053 43.1689 34.9996C42.0805 37.2544 41.3459 39.6187 41.1282 42.12C40.9015 44.7309 42.135 46.94 44.2753 47.6977C45.406 48.0933 45.9864 48.9057 46.0167 50.1351C46.0167 50.4454 46.0167 50.7467 46.0167 51.0571Z" fill="white" stroke="white" stroke-miterlimit="10"/>
<path d="M49.0652 88.9871C53.5817 89.7995 57.5814 89.0327 60.1933 84.9522C62.6149 81.182 62.4879 77.1927 60.0664 73.5047C57.4272 69.4698 53.5001 68.5569 48.8203 69.6067C49.7182 68.8034 50.5344 67.8905 51.5321 67.2332C52.956 66.2839 54.4887 65.4714 56.0214 64.6955C56.3842 64.5129 57.0009 64.5585 57.4 64.7228C62.8235 66.932 65.9161 71.0491 66.8503 76.718C67.6665 81.6932 66.5238 86.2302 63.1681 90.1008C61.4631 92.0726 59.3045 93.4145 56.8467 94.2635C56.5293 94.373 56.094 94.3913 55.8037 94.2635C53.228 93.0767 50.9788 91.4518 49.174 89.2427C49.1196 89.1788 49.1015 89.0875 49.0652 88.9962V88.9871Z" fill="white"/>
<path d="M109.64 88.9688C114.093 89.7721 117.965 89.0966 120.623 85.299C123.198 81.6201 123.226 77.64 120.958 73.8515C118.364 69.5245 114.338 68.5295 109.585 69.7801C109.54 69.7071 109.495 69.6341 109.449 69.561C110.519 68.6573 111.526 67.6714 112.678 66.8863C113.866 66.0738 115.154 65.3983 116.46 64.7867C116.922 64.5676 117.621 64.5493 118.092 64.741C123.48 66.9411 126.554 71.0308 127.506 76.6723C128.35 81.6475 127.189 86.1754 123.861 90.0551C122.146 92.0634 119.961 93.4145 117.467 94.2726C117.176 94.373 116.777 94.4004 116.505 94.2726C113.848 93.0493 111.526 91.3787 109.622 88.9596L109.64 88.9688Z" fill="white"/>
<path d="M27.534 95.3225C21.2126 95.7516 15.907 93.725 12.4244 88.2934C8.75127 82.5696 8.84196 76.5447 12.4697 70.8483C15.9614 65.3619 21.2489 63.2897 27.6882 64.0109C20.4236 67.0508 16.2698 72.3454 16.5237 80.3057C16.7595 87.627 20.9587 92.3922 27.5249 95.3316L27.534 95.3225Z" fill="white"/>
<path d="M88.2354 95.3224C82.0682 95.7423 76.8805 93.8252 73.3525 88.6675C69.5524 83.099 69.4436 77.1379 72.8265 71.3776C76.2457 65.5444 81.6329 63.2804 88.3624 64.0107C81.3608 66.9137 77.2251 71.9801 77.1889 79.6209C77.1617 87.2708 81.4061 92.2642 88.2354 95.3315V95.3224Z" fill="white"/>
<path d="M115.035 63.7553C108.287 66.8956 104.795 72.0898 104.677 79.2103C104.551 86.5041 107.97 91.8627 114.717 94.9665C110.291 95.642 104.959 93.5972 101.929 89.5714C97.7938 84.0942 97.2043 78.0966 100.243 71.9894C103.181 66.074 108.296 63.5636 115.044 63.7553H115.035Z" fill="white"/>
<path d="M54.2071 95.0758C48.3029 95.3314 43.614 93.3048 40.4851 88.4757C36.8029 82.7976 36.685 76.8092 40.1223 70.985C43.2331 65.7086 48.1306 63.536 54.3159 63.7733C40.5667 69.3966 40.6211 89.7811 54.2071 95.0849V95.0758Z" fill="white"/>
<path d="M92.3797 71.3412C89.3324 69.4698 85.8951 69.2051 82.3127 70.0175C82.2401 69.9263 82.1676 69.8258 82.0859 69.7345C82.5031 69.4059 82.884 69.0408 83.3284 68.7669C85.5232 67.4341 87.7362 66.1196 89.9582 64.8233C90.1758 64.6955 90.5114 64.6498 90.7472 64.7137C92.2437 65.1428 93.722 65.6175 95.1368 66.0557C94.1754 67.8997 93.2866 69.5885 92.3706 71.3412H92.3797Z" fill="white"/>
<path d="M34.4623 66.0649C33.4828 67.9363 32.6121 69.6068 31.7052 71.3413C28.6578 69.4699 25.2024 69.196 21.5293 69.8442C21.9465 69.4516 22.3093 68.9678 22.7809 68.6757C24.9213 67.3611 27.0888 66.0922 29.2655 64.8416C29.5013 64.7047 29.8822 64.659 30.1452 64.7321C31.6145 65.152 33.0656 65.6267 34.4532 66.0649H34.4623Z" fill="white"/>
<path d="M81.9778 88.9871C85.796 90.0278 89.2424 89.9091 92.4348 88.1929C93.2874 89.7539 94.1399 91.3332 95.0468 93.0037C93.7862 93.871 92.199 94.3822 90.5303 94.6834C90.367 94.7108 90.1494 94.6652 90.0042 94.583C87.5011 93.2046 84.9254 91.9357 82.8394 89.9182C82.6036 89.69 82.3859 89.4344 81.9688 88.9871H81.9778Z" fill="white"/>
<path d="M31.7424 88.1382C32.6403 89.7905 33.4837 91.3424 34.3816 93.0129C33.0938 93.8619 31.4975 94.4096 29.7925 94.6835C29.6564 94.7018 29.4841 94.6561 29.3572 94.5831C26.854 93.2046 24.2783 91.9357 22.1833 89.9274C21.9384 89.6992 21.7298 89.4436 21.5938 89.2975C23.2807 89.3888 25.022 89.5805 26.7633 89.5623C28.5591 89.5349 30.3094 89.1515 31.7424 88.1473V88.1382Z" fill="white"/>
<path d="M93.9172 42.8396C94.3994 41.6328 94.0105 40.3388 93.0486 39.9494C92.0866 39.56 90.9159 40.2226 90.4337 41.4294C89.9515 42.6362 90.3404 43.9302 91.3023 44.3196C92.2643 44.7091 93.435 44.0464 93.9172 42.8396Z" fill="white"/>
<path d="M96.6418 37.0975C97.124 35.8907 96.7351 34.5967 95.7732 34.2072C94.8112 33.8178 93.6405 34.4804 93.1583 35.6872C92.6761 36.894 93.065 38.188 94.0269 38.5774C94.9889 38.9669 96.1596 38.3043 96.6418 37.0975Z" fill="white"/>
<path d="M91.4231 37.9639C91.9053 36.7571 91.5164 35.4631 90.5544 35.0737C89.5925 34.6843 88.4218 35.3469 87.9395 36.5537C87.4573 37.7605 87.8462 39.0545 88.8082 39.4439C89.7701 39.8333 90.9409 39.1707 91.4231 37.9639Z" fill="white"/>
<path d="M117.14 32.8086C117.14 32.8086 115.707 36.0585 115.081 39.9108C114.455 43.7632 114.673 50.3906 114.519 51.9243C114.364 53.4579 113.031 57.4837 113.031 57.4837C113.031 57.4837 125.066 55.8953 127.443 54.0239C127.443 54.0239 134.353 51.8056 136.539 45.5524C138.725 39.2992 137.219 29.4128 133.174 20.0923C129.12 10.7718 119.153 6.70955 114.065 7.47636C108.977 8.24318 108.215 8.5353 106.9 10.5619C105.585 12.5885 105.821 17.5819 105.821 17.5819" fill="white"/>
<path d="M117.14 32.8086C117.14 32.8086 115.707 36.0585 115.081 39.9108C114.455 43.7632 114.673 50.3906 114.519 51.9243C114.364 53.4579 113.031 57.4837 113.031 57.4837C113.031 57.4837 125.066 55.8953 127.443 54.0239C127.443 54.0239 134.353 51.8056 136.539 45.5524C138.725 39.2992 137.219 29.4128 133.174 20.0923C129.12 10.7718 119.153 6.70955 114.065 7.47636C108.977 8.24318 108.215 8.5353 106.9 10.5619C105.585 12.5885 105.821 17.5819 105.821 17.5819" stroke="white" stroke-miterlimit="10"/>
<path d="M120.097 33.1555L119.553 34.1871C119.335 34.5157 118.174 38.1398 117.73 42.3482C117.285 46.5565 117.639 47.0312 117.657 49.4777C117.675 51.9242 116.941 53.9508 116.941 53.9508C120.115 53.6952 133.148 50.4728 134.272 43.7266C135.388 36.9805 129.81 35.7298 129.81 35.7298C127.361 42.8046 123.643 44.8403 123.643 44.8403C124.595 44.037 128.105 34.6983 126.246 33.8858C124.386 33.0734 113.168 33.0734 109.159 31.2202C105.15 29.3671 105.395 22.4292 105.395 22.4292C102.611 21.3155 103.237 20.4939 103.237 20.4939C103.237 20.4939 104.96 20.2292 109.014 19.8823C112.415 19.5902 115.816 20.4848 116.823 20.7861C117.013 20.8408 108.207 22.3106 108.207 22.3106C107.726 23.7164 109.531 28.0434 109.531 28.0434C109.531 28.0434 109.957 29.8144 118.627 29.8235C127.298 29.8327 134.054 34.8717 134.054 34.8717L134.39 35.1547C134.39 35.1547 133.973 27.0575 129.474 19.5172C124.976 11.9768 117.711 10.0963 114.909 10.2424C112.107 10.3884 108.143 10.5892 108.579 15.2358C108.579 15.2358 114.755 15.391 117.376 16.6142C117.376 16.6142 122.573 17.7644 126.872 21.4981L127.125 21.8998C127.125 21.8998 118.12 17.9379 112.497 17.518C112.497 17.518 103.772 17.1985 101.078 18.303L103.345 20.5213" stroke="white" stroke-miterlimit="10"/>
<path d="M114.738 29.8237L116.878 30.0793L120.034 32.6536L111.672 32.0968L107.627 30.0793L105.614 26.0992L105.015 22.5116L103.256 20.9962L103.836 20.1381L108.289 19.9373L110.248 20.6949L109.033 22.1738L108.135 22.9224L108.697 25.6975L109.722 28.2901L114.738 29.8237Z" fill="white"/>
<path d="M83.3029 95.3865L80.582 97.0205" stroke="white" stroke-miterlimit="10"/>
<path d="M59.3686 112.402L62.561 107.993L62.7424 107.683C62.7424 107.683 57.0106 99.6678 45.6375 96.7649C45.6375 96.7649 42.3725 108.295 46.2633 112.804C50.1541 117.314 51.8591 117.204 56.6206 114.758C56.6206 114.758 51.3875 109.426 50.8887 105.382C50.8887 105.382 55.6683 110.778 57.3552 111.681C59.033 112.585 59.3777 112.402 59.3777 112.402H59.3686Z" fill="white" stroke="white" stroke-miterlimit="10"/>
<path d="M64.9546 104.999C64.9546 104.999 62.2065 102.762 58.6785 101.156C55.1505 99.5492 48.7294 98.0429 47.2965 97.5043C45.8635 96.9657 42.3536 94.6196 42.3536 94.6196C42.3536 94.6196 40.7665 106.733 41.9455 109.527C41.9455 109.527 42.2811 116.821 47.7227 120.564C53.1644 124.306 63.0409 125.402 73.0263 123.877C83.0117 122.353 89.4964 113.708 90.0768 108.559C90.6573 103.411 90.5756 102.598 88.9703 100.8C87.3651 99.0014 82.5129 97.9334 82.5129 97.9334" fill="white"/>
<path d="M64.9546 104.999C64.9546 104.999 62.2065 102.762 58.6785 101.156C55.1505 99.5492 48.7294 98.0429 47.2965 97.5043C45.8635 96.9657 42.3536 94.6196 42.3536 94.6196C42.3536 94.6196 40.7665 106.733 41.9455 109.527C41.9455 109.527 42.2811 116.821 47.7227 120.564C53.1644 124.306 63.0409 125.402 73.0263 123.877C83.0117 122.353 89.4964 113.708 90.0768 108.559C90.6573 103.411 90.5756 102.598 88.9703 100.8C87.3651 99.0014 82.5129 97.9334 82.5129 97.9334" stroke="white" stroke-miterlimit="10"/>
<path d="M63.8576 107.783L63.0051 106.989C62.7511 106.688 59.5678 104.634 55.6498 103.1C51.7318 101.567 51.1786 101.795 48.8296 101.183C46.4806 100.572 44.7212 99.33 44.7212 99.33C44.1407 102.489 43.8596 115.99 50.0449 118.82C56.2302 121.65 58.8694 116.547 58.8694 116.547C52.7113 112.338 51.7228 108.194 51.7228 108.194C52.2488 109.326 60.3024 115.159 61.5631 113.562C62.8237 111.964 65.735 101.055 68.5465 97.6412C71.358 94.227 77.9515 96.2628 77.9515 96.2628C79.7381 93.8436 80.373 94.6652 80.373 94.6652C80.373 94.6652 80.1735 96.4088 79.4661 100.435C78.8675 103.821 77.1261 106.898 76.582 107.792C76.4822 107.966 77.3438 99.0196 77.3438 99.0196C76.1194 98.1889 71.494 98.8279 71.494 98.8279C71.494 98.8279 69.6892 98.7914 67.431 107.217C65.1817 115.643 58.5883 120.91 58.5883 120.91L58.2346 121.166C58.2346 121.166 66.1159 122.855 74.5142 120.436C82.9124 118.007 86.6037 111.444 87.1841 108.678C87.7645 105.912 88.608 102.014 84.037 101.229C84.037 101.229 82.2957 107.19 80.4365 109.417C80.4365 109.417 77.9787 114.173 73.2898 117.387L72.8363 117.524C72.8363 117.524 78.9672 109.792 80.8265 104.433C80.8265 104.433 83.3931 96.0345 83.0303 93.1316" stroke="white" stroke-miterlimit="10"/>
<path d="M68.4367 103.438L67.6386 105.455L64.3555 107.856L67.0582 99.8686L70.0329 96.4544L74.3772 95.5233L77.9686 95.8793L79.8823 94.5557L80.5534 95.3499L79.5921 99.7317L78.3586 101.439L77.2612 99.8686L76.7715 98.8005L73.96 98.6271L71.2119 98.9557L68.4367 103.438Z" fill="white"/>
<path d="M22.6912 31.403C22.6912 31.403 26.1012 30.481 29.466 28.5457C32.8307 26.6196 37.8189 22.2743 39.0977 21.4253C40.3765 20.5763 44.3217 19.0883 44.3217 19.0883C44.3217 19.0883 35.5244 10.6716 32.5768 9.98697C32.5768 9.98697 26.5184 5.97032 20.3059 8.20686C14.1024 10.4343 7.40921 17.8286 2.76568 26.866C-1.87785 35.8944 1.26016 46.2555 5.05117 49.7518C8.84218 53.2481 9.54959 53.6589 11.9348 53.4124C14.3292 53.166 18.0385 49.8431 18.0385 49.8431" fill="white"/>
<path d="M22.6912 31.403C22.6912 31.403 26.1012 30.481 29.466 28.5457C32.8307 26.6196 37.8189 22.2743 39.0977 21.4253C40.3765 20.5763 44.3217 19.0883 44.3217 19.0883C44.3217 19.0883 35.5244 10.6716 32.5768 9.98697C32.5768 9.98697 26.5184 5.97032 20.3059 8.20686C14.1024 10.4343 7.40921 17.8286 2.76568 26.866C-1.87785 35.8944 1.26016 46.2555 5.05117 49.7518C8.84218 53.2481 9.54959 53.6589 11.9348 53.4124C14.3292 53.166 18.0385 49.8431 18.0385 49.8431" stroke="white" stroke-miterlimit="10"/>
<path d="M21.0955 28.8652L22.2382 28.637C22.6282 28.6005 26.1562 27.2221 29.6842 24.9307C33.2212 22.6303 33.3573 22.0552 35.2347 20.5033C37.112 18.9514 39.1345 18.2485 39.1345 18.2485C36.9397 15.9207 26.2469 7.75955 20.3336 11.1281C14.4204 14.4966 16.9689 19.6543 16.9689 19.6543C23.9705 17.1165 27.8794 18.7414 27.8794 18.7414C26.655 18.5041 17.241 21.6353 17.7851 23.6071C18.3293 25.5789 25.3853 34.3516 26.4736 38.6512C27.5619 42.9509 22.0568 47.1227 22.0568 47.1227C22.9456 49.9983 21.9208 50.0257 21.9208 50.0257C21.9208 50.0257 20.6329 48.8389 17.8123 45.8995C15.4452 43.4256 13.9941 40.194 13.5951 39.2264C13.5225 39.0438 20.1976 45.0049 20.1976 45.0049C21.5852 44.4937 23.7891 40.3583 23.7891 40.3583C23.7891 40.3583 24.8865 38.9069 19.4358 32.1242C13.9851 25.3415 13.6313 16.8792 13.6313 16.8792V16.441C13.6313 16.441 7.64554 21.8635 4.66171 30.125C1.66881 38.3865 4.78868 45.2605 6.66605 47.351C8.54341 49.4414 11.1917 52.4265 14.502 49.1676C14.502 49.1676 10.7291 44.2472 10.0308 41.4173C10.0308 41.4173 7.64554 36.6247 7.82693 30.9192L7.98111 30.4719C7.98111 30.4719 10.5931 40.0114 13.8037 44.6671C13.8037 44.6671 19.0458 51.6962 21.5943 53.1021" stroke="white" stroke-miterlimit="10"/>
<path d="M21.9021 35.1549L20.7503 33.3201V29.2395L25.5752 36.1226L26.5729 40.5592L24.7681 44.6397L22.3737 47.3601L22.3102 49.697L21.2763 49.7792L18.3288 46.4198L17.6758 44.4115L19.5804 44.4389L20.7322 44.6671L22.5188 42.4762L23.8793 40.0479L21.9021 35.1549Z" fill="white"/>
</g>
<defs>
<clipPath id="clip0_800_286">
<rect width="138" height="125" fill="white"/>
</clipPath>
</defs>
</svg>
